# xmcd
#
# Track frame offsets:
#   150
#   11396
#   22374
#   35907
#   48066
#   63746
#   76111
#   87048
#   97207
#   105828
#   118324
#   134601
#   148508
#   161964
#   174540
#   188125
#   201270
#   216066
#   229195
#   240498
#   255030
#   265974
#   276875
#   286740
#   300588
#
# Disc length: 4354 seconds
#
# Revision: 0
# Processed by: cddbd v1.5.1PL0 Copyright (c) Steve Scherf et al.
# Submitted via: Media_Universe 3.0
#
DISCID=63110019
DTITLE=John Lee Hooker - Collection CD2
DYEAR=1900
DGENRE=Blues
TTITLE0=07 - Track 07
TTITLE1=08 - Track 08
TTITLE2=09 - Track 09
TTITLE3=10 - Track 10
TTITLE4=11 - Track 11
TTITLE5=12 - Track 12
TTITLE6=13 - Track 13
TTITLE7=14 - Track 14
TTITLE8=15 - Track 15
TTITLE9=16 - Track 16
TTITLE10=17 - Track 17
TTITLE11=01 - Track 01
TTITLE12=02 - Track 02
TTITLE13=03 - Track 03
TTITLE14=04 - Track 04
TTITLE15=05 - Track 05
TTITLE16=06 - Track 06
TTITLE17=07 - Track 07
TTITLE18=08 - Track 08
TTITLE19=09 - Track 09
TTITLE20=10 - Track 10
TTITLE21=11 - Track 11
TTITLE22=12 - Track 12
TTITLE23=13 - Track 13
TTITLE24=14 - Track 14
EXTD=
EXTT0=
EXTT1=
EXTT2=
EXTT3=
EXTT4=
EXTT5=
EXTT6=
EXTT7=
EXTT8=
EXTT9=
EXTT10=
EXTT11=
EXTT12=
EXTT13=
EXTT14=
EXTT15=
EXTT16=
EXTT17=
EXTT18=
EXTT19=
EXTT20=
EXTT21=
EXTT22=
EXTT23=
EXTT24=
PLAYORDER=
